<svg version="1.1" xmlns="http://www.w3.org/2000/svg" xmlns:xlink="http://www.w3.org/1999/xlink" viewBox="0 0 172 172"><g transform=""><g fill="none" fill-rule="nonzero" stroke="none" stroke-width="1" stroke-linecap="butt" stroke-linejoin="miter" stroke-miterlimit="10" stroke-dasharray="" stroke-dashoffset="0" font-family="none" font-weight="none" font-size="none" text-anchor="none" style="mix-blend-mode: normal"><path d="M0,172v-172h172v172z" fill="none"></path><path d="" fill="none"></path><g fill="#9b59b6"><path d="M25.08333,150.5h35.83333v-35.83333zM146.91667,21.5h-35.83333v35.83333zM97.825,29.74167c-4.3,-0.71667 -8.95833,-1.075 -13.25833,-1.075l-0.35833,-14.33333c0.71667,0 1.43333,0 1.79167,0c5.01667,0 10.03333,0.35833 14.69167,1.43333zM60.2,34.75833l-6.45,-12.9c5.01667,-2.50833 10.39167,-4.65833 15.76667,-5.73333l3.225,13.975c-4.65833,1.075 -8.6,2.86667 -12.54167,4.65833z"></path><path d="M44.075,144.05c-18.63333,-13.25833 -29.74167,-35.11667 -29.74167,-58.05c0,-21.14167 9.31667,-41.20833 25.44167,-54.825l9.31667,11.10833c-12.9,10.75 -20.425,26.875 -20.425,43.71667c0,18.275 8.95833,35.83333 23.65,46.58333zM86,157.66667c-4.65833,0 -9.675,-0.35833 -14.33333,-1.43333l2.86667,-13.975c3.94167,0.71667 7.88333,1.075 11.825,1.075c0.71667,0 1.075,0 1.79167,0l0.35833,14.33333c-1.075,0 -1.79167,0 -2.50833,0zM102.84167,155.51667l-3.225,-13.975c4.3,-1.075 8.6,-2.50833 12.54167,-4.65833l6.45,12.9c-5.01667,2.50833 -10.39167,4.65833 -15.76667,5.73333zM132.225,140.825l-9.31667,-11.10833c12.9,-10.75 20.425,-26.875 20.425,-43.71667c0,-18.275 -8.95833,-35.83333 -24.00833,-46.58333l8.24167,-11.46667c18.99167,13.25833 30.1,35.11667 30.1,58.05c0,21.14167 -9.31667,41.20833 -25.44167,54.825z"></path></g></g></g></svg>